# xmcd CD database file
#
# Track frame offsets:
#	150
#	34804
#	69374
#	84707
#	103129
#	150193
#	179203
#	231837
#	249474
#	277551
#	296859
#	319294
#	344930
#
# Disc length: 4866 seconds
#
# Revision: 1
# Processed by: cddbd v1.4PL0 Copyright (c) Steve Scherf et al.
# Submitted via: CDex 1.50beta9
#
DISCID=c113000d
DTITLE=Jean Michel Jarre - Oxygene
DYEAR=1996
DGENRE=New Age
TTITLE0=Oxygene (Part I)
TTITLE1=Oxygene (Part II)
TTITLE2=Oxygene (Part III)
TTITLE3=Oxygene (Part IV)
TTITLE4=Oxygene (Part V)
TTITLE5=Oxygene (Part VI)
TTITLE6=Oxygene (Part VII)
TTITLE7=Oxygene (Part VIII)
TTITLE8=Oxygene (Part IX)
TTITLE9=Oxygene (Part X)
TTITLE10=Oxygene (Part XI)
TTITLE11=Oxygene (Part XII)
TTITLE12=Oxygene (Part XIII)
EXTD=YEAR: 1996
EXTT0=
EXTT1=
EXTT2=
EXTT3=
EXTT4=
EXTT5=
EXTT6=
EXTT7=
EXTT8=
EXTT9=
EXTT10=
EXTT11=
EXTT12=
PLAYORDER=
